<svg width="96" height="96" viewBox="0 0 96 96" fill="none" xmlns="http://www.w3.org/2000/svg">
  <rect width="96" height="96" rx="8" fill="#F3F4F6"/>
  <path d="M48 32C39.1634 32 32 39.1634 32 48C32 56.8366 39.1634 64 48 64C56.8366 64 64 56.8366 64 48C64 39.1634 56.8366 32 48 32ZM48 60C41.3726 60 36 54.6274 36 48C36 41.3726 41.3726 36 48 36C54.6274 36 60 41.3726 60 48C60 54.6274 54.6274 60 48 60Z" fill="#9CA3AF"/>
  <path d="M48 40C44.6863 40 42 42.6863 42 46C42 49.3137 44.6863 52 48 52C51.3137 52 54 49.3137 54 46C54 42.6863 51.3137 40 48 40ZM48 50C45.7909 50 44 48.2091 44 46C44 43.7909 45.7909 42 48 42C50.2091 42 52 43.7909 52 46C52 48.2091 50.2091 50 48 50Z" fill="#9CA3AF"/>
</svg>
